<!--?xml version="1.0" encoding="UTF-8" standalone="no"?-->
<svg version="1.1" viewBox="0.00 0.00 100.00 100.00" id="svg10" sodipodi:docname="logo.svg" inkscape:export-filename="logo.png" inkscape:export-xdpi="96" inkscape:export-ydpi="96" inkscape:version="1.3.2 (091e20ef0f, 2023-11-25, custom)" xmlns:inkscape="http://www.inkscape.org/namespaces/inkscape" xmlns:sodipodi="http://sodipodi.sourceforge.net/DTD/sodipodi-0.dtd" xmlns="http://www.w3.org/2000/svg" xmlns:svg="http://www.w3.org/2000/svg" width="100" height="100">
  <defs id="defs10"></defs>
  <sodipodi:namedview id="namedview10" pagecolor="#ffffff" bordercolor="#000000" borderopacity="0.25" inkscape:showpageshadow="2" inkscape:pageopacity="0.0" inkscape:pagecheckerboard="0" inkscape:deskcolor="#d1d1d1" inkscape:zoom="49.6" inkscape:cx="77.641129" inkscape:cy="35.655242" inkscape:window-width="3836" inkscape:window-height="2113" inkscape:window-x="0" inkscape:window-y="45" inkscape:window-maximized="1" inkscape:current-layer="svg10"></sodipodi:namedview>
  <g stroke-width="2.00" fill="none" stroke-linecap="butt" id="g5">
    <path stroke="#93bbe2" vector-effect="non-scaling-stroke" d="   M 61.98 40.94   A 0.88 0.87 0.3 0 1 61.09 40.05   L 61.25 31.31   A 1.19 1.18 -66.8 0 0 60.93 30.50   L 59.23 28.67   Q 58.69 28.09 58.22 28.73   C 57.44 29.81 56.16 30.35 56.24 31.85   C 56.41 35.11 54.99 42.54 60.15 42.91   Q 63.47 43.15 67.07 42.97   C 73.22 42.66 77.58 46.18 76.70 52.90   C 75.65 60.87 66.39 59.46 61.07 59.40   A 1.00 0.98 -65.8 0 0 60.36 59.68   Q 59.83 60.20 59.96 60.73   Q 60.19 61.67 61.16 61.67   C 66.01 61.68 72.77 62.51 76.83 60.01   C 82.12 56.76 83.38 50.31 79.61 45.35   C 75.30 39.67 68.25 40.86 61.98 40.94" id="path1" class="svg-elem-1"></path>
    <path stroke="#93bbe2" vector-effect="non-scaling-stroke" d="   M 86.49 28.71   Q 86.44 28.59 86.35 28.49   Q 85.97 28.08 85.73 28.58   Q 85.32 29.47 84.55 30.09   Q 83.24 31.16 84.23 32.53   C 85.45 34.23 88.01 34.13 88.10 31.77   Q 88.17 29.89 86.78 29.04   Q 86.58 28.92 86.49 28.71" id="path2" class="svg-elem-2"></path>
    <path stroke="#93bbe2" vector-effect="non-scaling-stroke" d="   M 56.35 52.58   C 56.60 60.42 46.83 61.38 41.85 58.44   Q 38.32 56.36 38.33 53.18   Q 38.36 46.56 38.22 40.81   Q 38.17 39.08 36.13 38.47   Q 35.80 38.38 35.49 38.53   Q 33.69 39.37 33.73 41.17   Q 33.82 46.31 33.69 52.56   C 33.44 64.09 60.23 66.00 58.90 50.91   Q 58.69 48.53 58.89 46.42   Q 59.01 45.13 57.77 44.76   Q 57.17 44.59 56.57 45.19   A 1.13 1.08 -23.5 0 0 56.24 45.97   Q 56.24 49.16 56.35 52.58" id="path3" class="svg-elem-3"></path>
    <path stroke="#93bbe2" vector-effect="non-scaling-stroke" d="   M 88.02 40.73   A 1.91 1.91 0.0 0 0 86.11 38.82   L 85.61 38.82   A 1.91 1.91 0.0 0 0 83.70 40.73   L 83.70 59.83   A 1.91 1.91 0.0 0 0 85.61 61.74   L 86.11 61.74   A 1.91 1.91 0.0 0 0 88.02 59.83   L 88.02 40.73" id="path4" class="svg-elem-4"></path>
    <path stroke="#93bbe2" vector-effect="non-scaling-stroke" d="   M 31.07 62.46   L 30.95 70.96   Q 30.92 73.00 32.96 73.00   L 33.63 73.00   Q 35.76 73.00 35.75 70.87   L 35.74 63.72   A 4.06 4.06 0.0 0 0 32.10 59.69   C 28.06 59.26 22.42 60.48 18.89 58.27   C 12.96 54.55 14.40 44.26 21.86 43.32   Q 25.40 42.88 30.75 43.27   A 1.18 1.18 0.0 0 0 32.02 42.14   L 32.04 41.75   Q 32.08 40.96 31.28 40.94   Q 22.27 40.72 20.01 41.03   Q 15.24 41.67 12.55 44.99   C 6.95 51.88 12.86 61.58 20.99 61.67   Q 25.40 61.71 30.27 61.66   A 0.79 0.79 0.0 0 1 31.07 62.46" id="path5" class="svg-elem-5"></path>
  </g>
  <path fill="#2777c5" d="   M 0.00 0.00   L 100.00 0.00   L 100.00 100.00   L 0.00 100.00   L 0.00 0.00   Z   M 61.98 40.94   A 0.88 0.87 0.3 0 1 61.09 40.05   L 61.25 31.31   A 1.19 1.18 -66.8 0 0 60.93 30.50   L 59.23 28.67   Q 58.69 28.09 58.22 28.73   C 57.44 29.81 56.16 30.35 56.24 31.85   C 56.41 35.11 54.99 42.54 60.15 42.91   Q 63.47 43.15 67.07 42.97   C 73.22 42.66 77.58 46.18 76.70 52.90   C 75.65 60.87 66.39 59.46 61.07 59.40   A 1.00 0.98 -65.8 0 0 60.36 59.68   Q 59.83 60.20 59.96 60.73   Q 60.19 61.67 61.16 61.67   C 66.01 61.68 72.77 62.51 76.83 60.01   C 82.12 56.76 83.38 50.31 79.61 45.35   C 75.30 39.67 68.25 40.86 61.98 40.94   Z   M 86.49 28.71   Q 86.44 28.59 86.35 28.49   Q 85.97 28.08 85.73 28.58   Q 85.32 29.47 84.55 30.09   Q 83.24 31.16 84.23 32.53   C 85.45 34.23 88.01 34.13 88.10 31.77   Q 88.17 29.89 86.78 29.04   Q 86.58 28.92 86.49 28.71   Z   M 56.35 52.58   C 56.60 60.42 46.83 61.38 41.85 58.44   Q 38.32 56.36 38.33 53.18   Q 38.36 46.56 38.22 40.81   Q 38.17 39.08 36.13 38.47   Q 35.80 38.38 35.49 38.53   Q 33.69 39.37 33.73 41.17   Q 33.82 46.31 33.69 52.56   C 33.44 64.09 60.23 66.00 58.90 50.91   Q 58.69 48.53 58.89 46.42   Q 59.01 45.13 57.77 44.76   Q 57.17 44.59 56.57 45.19   A 1.13 1.08 -23.5 0 0 56.24 45.97   Q 56.24 49.16 56.35 52.58   Z   M 88.02 40.73   A 1.91 1.91 0.0 0 0 86.11 38.82   L 85.61 38.82   A 1.91 1.91 0.0 0 0 83.70 40.73   L 83.70 59.83   A 1.91 1.91 0.0 0 0 85.61 61.74   L 86.11 61.74   A 1.91 1.91 0.0 0 0 88.02 59.83   L 88.02 40.73   Z   M 31.07 62.46   L 30.95 70.96   Q 30.92 73.00 32.96 73.00   L 33.63 73.00   Q 35.76 73.00 35.75 70.87   L 35.74 63.72   A 4.06 4.06 0.0 0 0 32.10 59.69   C 28.06 59.26 22.42 60.48 18.89 58.27   C 12.96 54.55 14.40 44.26 21.86 43.32   Q 25.40 42.88 30.75 43.27   A 1.18 1.18 0.0 0 0 32.02 42.14   L 32.04 41.75   Q 32.08 40.96 31.28 40.94   Q 22.27 40.72 20.01 41.03   Q 15.24 41.67 12.55 44.99   C 6.95 51.88 12.86 61.58 20.99 61.67   Q 25.40 61.71 30.27 61.66   A 0.79 0.79 0.0 0 1 31.07 62.46   Z" id="path6" class="svg-elem-6"></path>
  <path fill="#ffffff" d="   M 61.98 40.94   C 68.25 40.86 75.30 39.67 79.61 45.35   C 83.38 50.31 82.12 56.76 76.83 60.01   C 72.77 62.51 66.01 61.68 61.16 61.67   Q 60.19 61.67 59.96 60.73   Q 59.83 60.20 60.36 59.68   A 1.00 0.98 -65.8 0 1 61.07 59.40   C 66.39 59.46 75.65 60.87 76.70 52.90   C 77.58 46.18 73.22 42.66 67.07 42.97   Q 63.47 43.15 60.15 42.91   C 54.99 42.54 56.41 35.11 56.24 31.85   C 56.16 30.35 57.44 29.81 58.22 28.73   Q 58.69 28.09 59.23 28.67   L 60.93 30.50   A 1.19 1.18 -66.8 0 1 61.25 31.31   L 61.09 40.05   A 0.88 0.87 0.3 0 0 61.98 40.94   Z" id="path7" class="svg-elem-7"></path>
  <path fill="#ffffff" d="   M 41.85 58.44   C 46.83 61.38 56.60 60.42 56.35 52.58   Q 56.24 49.16 56.24 45.97   A 1.13 1.08 -23.5 0 1 56.57 45.19   Q 57.17 44.59 57.77 44.76   Q 59.01 45.13 58.89 46.42   Q 58.69 48.53 58.90 50.91   C 60.23 66.00 33.44 64.09 33.69 52.56   Q 33.82 46.31 33.73 41.17   Q 33.69 39.37 35.49 38.53   Q 35.80 38.38 36.13 38.47   Q 38.17 39.08 38.22 40.81   Q 38.36 46.56 38.33 53.18   Q 38.32 56.36 41.85 58.44   Z" id="path9" class="svg-elem-8"></path>
  <rect fill="#ffffff" x="83.70" y="38.82" width="4.32" height="22.92" rx="1.91" id="rect9" class="svg-elem-9"></rect>
  <path fill="#ffffff" d="   M 30.27 61.66   Q 25.40 61.71 20.99 61.67   C 12.86 61.58 6.95 51.88 12.55 44.99   Q 15.24 41.67 20.01 41.03   Q 22.27 40.72 31.28 40.94   Q 32.08 40.96 32.04 41.75   L 32.02 42.14   A 1.18 1.18 0.0 0 1 30.75 43.27   Q 25.40 42.88 21.86 43.32   C 14.40 44.26 12.96 54.55 18.89 58.27   C 22.42 60.48 28.06 59.26 32.10 59.69   A 4.06 4.06 0.0 0 1 35.74 63.72   L 35.75 70.87   Q 35.76 73.00 33.63 73.00   L 32.96 73.00   Q 30.92 73.00 30.95 70.96   L 31.07 62.46   A 0.79 0.79 0.0 0 0 30.27 61.66   Z" id="path10" class="svg-elem-10"></path>
  <ellipse style="fill: rgb(255, 255, 255); stroke-width: 1.10603px;" id="path11" cx="85.978172" cy="31.106213" rx="2.4255311" ry="2.8870604" class="svg-elem-11"></ellipse>
</svg>
